# xmcd
#
# Track frame offsets:
#       150
#       18877
#       38730
#       53957
#       76650
#       99235
#       115582
#       136097
#       161172
#       182147
#
# Disc length: 2674 seconds
#
# Revision: 0
# Processed by: cddbd v1.4PL0 Copyright (c) Steve Scherf et al.
# Submitted via: CD-DA_X-Tractor v0.23
#
DISCID=6d0a700a
DTITLE=Cory Tetford - Grace
DYEAR=1999
DGENRE=
TTITLE0=wind
TTITLE1=the river
TTITLE2=it's been so long
TTITLE3=on the other side
TTITLE4=grace
TTITLE5=city on the water
TTITLE6=tears
TTITLE7=georgia
TTITLE8=sweet sister mercy
TTITLE9=i'll miss you
EXTD=
EXTT0=
EXTT1=
EXTT2=
EXTT3=
EXTT4=
EXTT5=
EXTT6=
EXTT7=
EXTT8=
EXTT9=
PLAYORDER=
